<svg xmlns="http://www.w3.org/2000/svg" viewBox="0 0 32 32" width="32" height="32">
  <defs>
    <linearGradient id="grad1" x1="0%" y1="0%" x2="100%" y2="100%">
      <stop offset="0%" style="stop-color:#3b82f6;stop-opacity:1" />
      <stop offset="100%" style="stop-color:#1d4ed8;stop-opacity:1" />
    </linearGradient>
  </defs>
  
  <!-- Background circle -->
  <circle cx="16" cy="16" r="15" fill="url(#grad1)" stroke="#1e40af" stroke-width="1"/>
  
  <!-- Film strip design -->
  <rect x="8" y="12" width="16" height="8" fill="none" stroke="white" stroke-width="1.5" rx="1"/>
  
  <!-- Film perforations -->
  <rect x="9" y="10" width="1" height="2" fill="white"/>
  <rect x="11" y="10" width="1" height="2" fill="white"/>
  <rect x="13" y="10" width="1" height="2" fill="white"/>
  <rect x="15" y="10" width="1" height="2" fill="white"/>
  <rect x="17" y="10" width="1" height="2" fill="white"/>
  <rect x="19" y="10" width="1" height="2" fill="white"/>
  <rect x="21" y="10" width="1" height="2" fill="white"/>
  <rect x="23" y="10" width="1" height="2" fill="white"/>
  
  <rect x="9" y="20" width="1" height="2" fill="white"/>
  <rect x="11" y="20" width="1" height="2" fill="white"/>
  <rect x="13" y="20" width="1" height="2" fill="white"/>
  <rect x="15" y="20" width="1" height="2" fill="white"/>
  <rect x="17" y="20" width="1" height="2" fill="white"/>
  <rect x="19" y="20" width="1" height="2" fill="white"/>
  <rect x="21" y="20" width="1" height="2" fill="white"/>
  <rect x="23" y="20" width="1" height="2" fill="white"/>
  
  <!-- Storyboard frame -->
  <rect x="10" y="13" width="12" height="6" fill="white" opacity="0.9" rx="0.5"/>
  
  <!-- Camera icon -->
  <circle cx="16" cy="16" r="1.5" fill="#1e40af"/>
  <circle cx="16" cy="16" r="0.8" fill="white"/>
</svg>