<?xml version="1.0" encoding="UTF-8"?>
<svg id="a" xmlns="http://www.w3.org/2000/svg" version="1.1" viewBox="0 0 342.1 316.7">
  <!-- Generator: Adobe Illustrator 30.5.1, SVG Export Plug-In . SVG Version: 2.1.4 Build 3)  -->
  <defs>
    <style>
      .st0 {
        fill: #fff;
      }

      .st1 {
        fill: #21d4fc;
      }

      .st2 {
        fill: #0f1e31;
      }
    </style>
  </defs>
  <path class="st2" d="M295.7,316.7H18.5c-11.1,0-19.4-9-18.4-20.2L24.5,20.2C25.5,9,35.3,0,46.4,0h277.2c11.1,0,19.4,9,18.4,20.2l-24.4,276.4c-1,11.1-10.8,20.2-21.9,20.2Z"/>
  <path class="st1" d="M95.8,35.5h-55.5l-21.6,244.3h51.3c14.6,0,27.7-11.9,29.3-26.5l20.2-191.4c1.5-14.6-9.1-26.5-23.7-26.5Z"/>
  <path class="st0" d="M323.4,35.5h-148.2c-14.6,0-27.7,11.9-29.3,26.5l-20.2,191.4c-1.5,14.6,9.1,26.5,23.7,26.5h152.4l21.6-244.3Z"/>
  <g>
    <polygon class="st0" points="70.1 197.3 77.9 114.5 270.7 114.5 263 197.3 70.1 197.3"/>
    <path class="st2" d="M252.6,131l-4.7,49.8H88.2l4.7-49.8h159.7M288.9,98H62.9l-10.9,115.8h226l10.9-115.8h0Z"/>
  </g>
</svg>