<?xml version="1.0" encoding="UTF-8"?>
<svg id="a" xmlns="http://www.w3.org/2000/svg" viewBox="0 0 383.056 326">
  <defs>
    <style>
      .b {
        fill: #fff;
      }
    </style>
  </defs>
  <path class="b" d="M192.331,72.099l124.079,94.958-141.804,93.692,1.76-18.735,1.821-19.38H0h0c6.943-69.904,65.75-123.16,135.998-123.16h53.761l1.509-16.064,1.063-11.312"/>
  <path class="b" d="M354.268,0H89.91c-17.688,0-33.559,14.339-35.45,32.027l-5.316,49.726h124.48l4.057-43.182,169.273,129.546-193.455,127.818,5.222-55.579H32.189l-5.731,53.616c-1.891,17.688,10.915,32.027,28.603,32.027h264.359c17.688,0,33.559-14.339,35.45-32.027l28.001-261.947c1.891-17.688-10.915-32.027-28.603-32.027Z"/>
</svg>